<svg version="1.1" id="Layer_1" xmlns="http://www.w3.org/2000/svg" xmlns:xlink="http://www.w3.org/1999/xlink" x="0px" y="0px"
	 width="100%" viewBox="0 0 2183 838" enable-background="new 0 0 2183 838" xml:space="preserve">
<path fill="#000000" opacity="1.000000" stroke="none" 
	d="
M1.000002,388.000000 
	C1.000000,259.008667 1.000000,130.017334 1.000000,1.019497 
	C728.609131,1.012998 1456.218262,1.012998 2183.913574,1.012998 
	C2183.913574,280.256989 2183.913574,559.514038 2183.913574,838.885498 
	C1456.333374,838.885498 728.666687,838.885498 1.000003,838.880554 
	C1.000000,710.551025 1.000000,582.226379 1.408798,453.407196 
	C2.119601,453.650757 2.639603,454.373840 2.691832,455.129272 
	C4.117290,475.746918 7.725613,495.983704 12.641862,516.049377 
	C20.793856,549.321899 33.064713,580.963135 49.440067,611.017090 
	C71.366112,651.258423 99.195206,686.869202 133.044693,717.820129 
	C160.346573,742.784058 190.301880,763.907471 223.115799,780.933838 
	C254.823090,797.385986 288.100281,809.496460 322.924957,817.713745 
	C347.798157,823.582886 372.970947,827.383423 398.341156,828.453918 
	C420.395294,829.384460 442.646332,828.468384 464.666443,826.637451 
	C489.502808,824.572327 513.869934,819.284241 537.962402,812.506042 
	C566.749817,804.406860 594.316223,793.461182 620.632080,779.473572 
	C669.697388,753.393982 712.202271,719.109558 747.537537,676.099731 
	C782.372314,633.699036 807.779053,586.370239 823.521362,533.680298 
	C832.481384,503.691315 837.654175,473.117218 839.598083,442.078674 
	C841.558350,410.778656 839.172180,379.580627 833.451111,348.654846 
	C825.896057,307.815094 812.441101,269.090607 792.869446,232.476486 
	C759.527344,170.100830 712.878723,119.837143 653.890747,81.111191 
	C612.387146,53.863789 567.285156,34.836815 518.846436,23.462011 
	C493.484467,17.506298 467.852783,13.910969 441.970093,12.372275 
	C411.980591,10.589435 382.037262,12.566216 352.381317,17.292353 
	C324.439148,21.745373 297.159546,29.013023 270.618011,38.919395 
	C215.778214,59.387836 167.267731,89.957657 125.103539,130.514664 
	C92.942070,161.450226 66.653824,196.836914 45.952339,236.378784 
	C30.456533,265.977295 18.759584,297.073364 11.449317,329.594055 
	C7.307899,348.017700 5.574769,366.981476 2.672721,385.688904 
	C2.542925,386.525635 1.576657,387.232605 1.000002,388.000000 
M2108.526123,804.072083 
	C2122.128906,798.682129 2133.659668,790.464905 2142.565918,778.789490 
	C2156.083252,761.068787 2160.830811,740.589783 2160.868652,718.779236 
	C2160.971436,659.284241 2160.954102,599.789062 2160.972412,540.293945 
	C2160.972900,538.858643 2160.834717,537.423401 2160.770020,536.160217 
	C2141.742676,536.160217 2123.149170,536.160217 2103.897461,536.160217 
	C2103.897461,544.252197 2103.897461,552.078796 2103.897461,560.115784 
	C2100.266113,556.266174 2097.342529,552.571045 2093.839111,549.547058 
	C2065.651855,525.215881 2018.785278,528.337524 1992.262573,556.290283 
	C1975.682861,573.763611 1968.266602,595.047729 1966.846436,618.723938 
	C1965.289185,644.689880 1969.709595,669.168213 1985.169922,690.789124 
	C2008.687744,723.677673 2054.615967,732.860718 2087.132812,710.876221 
	C2093.298340,706.707581 2098.399902,700.965271 2103.919434,696.014404 
	C2103.919434,706.705872 2104.500244,717.850708 2103.757568,728.906616 
	C2103.005371,740.096802 2098.609863,749.845703 2088.513184,756.150696 
	C2067.858643,769.049072 2039.256470,760.964783 2028.770264,739.275330 
	C2010.317871,739.275330 1991.900391,739.275330 1973.436646,739.275330 
	C1976.163208,761.880554 1985.818970,780.474182 2004.788940,792.862854 
	C2037.005981,813.903076 2071.813232,815.202148 2108.526123,804.072083 
M1111.144043,266.304596 
	C1116.428101,285.490662 1121.712036,304.676727 1127.003906,323.891541 
	C1147.767212,323.891541 1168.250366,323.891541 1189.069580,323.891541 
	C1198.896240,285.059570 1208.719238,246.242554 1218.542114,207.425537 
	C1218.885376,207.460648 1219.228516,207.495773 1219.571655,207.530899 
	C1229.048096,246.307587 1238.524658,285.084290 1247.959961,323.692413 
	C1269.130615,323.692413 1289.897827,323.692413 1310.573853,323.692413 
	C1327.187256,262.364807 1343.716919,201.346756 1360.306885,140.106033 
	C1342.091309,140.106033 1324.636475,140.106033 1307.078613,140.106033 
	C1298.607422,183.013351 1290.172974,225.734680 1281.450684,269.914154 
	C1270.787598,225.616272 1260.472656,182.764984 1250.189331,140.044479 
	C1229.859741,140.044479 1210.217163,140.044479 1190.283203,140.044479 
	C1180.075317,183.158768 1169.882568,226.208801 1159.386353,270.540192 
	C1150.553589,226.204163 1141.986816,183.203323 1133.399048,140.096863 
	C1114.414429,140.096863 1095.807983,140.096863 1076.805298,140.096863 
	C1088.255249,182.087982 1099.627319,223.793869 1111.144043,266.304596 
M1356.693604,558.984680 
	C1356.593262,559.265076 1356.569702,559.669312 1356.371582,559.792297 
	C1356.159180,559.924194 1355.661377,559.916870 1355.495239,559.756165 
	C1350.380371,554.805237 1345.877319,548.977112 1340.100220,544.995850 
	C1307.979248,522.859131 1260.781738,532.228699 1237.173218,565.189941 
	C1220.899414,587.910950 1217.106812,613.721252 1219.494263,640.806824 
	C1221.320801,661.528015 1228.289795,680.318237 1241.917603,696.343262 
	C1267.984863,726.996338 1315.808472,731.693665 1345.651367,706.549866 
	C1349.443604,703.354675 1353.289429,700.223267 1356.532593,697.540405 
	C1356.532593,703.787354 1356.532593,711.668945 1356.532593,719.773621 
	C1375.643188,719.773621 1394.209961,719.773621 1412.770264,719.773621 
	C1412.770264,658.368530 1412.770264,597.180603 1412.770264,536.126160 
	C1393.975342,536.126160 1375.539917,536.126160 1356.705200,536.126160 
	C1356.705200,543.665527 1356.705200,550.961060 1356.693604,558.984680 
M1056.325806,539.302979 
	C1051.863525,520.794067 1041.322144,506.691498 1024.652954,497.698914 
	C995.586670,482.018555 964.968567,481.171509 934.162292,491.046478 
	C898.283020,502.547577 880.963013,533.515076 889.010132,570.140381 
	C893.548340,590.794983 907.534851,603.777710 926.128540,611.590698 
	C941.876160,618.207703 958.470642,622.782715 974.405090,628.993469 
	C981.882568,631.907959 989.322693,635.723633 995.644409,640.602051 
	C1004.312378,647.291077 1004.526917,661.289917 997.387085,669.267334 
	C988.804016,678.857117 961.062500,682.184021 951.249268,664.837830 
	C948.862671,660.619141 947.690186,655.713684 945.830566,650.782288 
	C926.946289,650.782288 907.630371,650.779541 888.314514,650.798462 
	C887.854797,650.798889 887.395264,651.040039 886.965332,651.160583 
	C886.231323,672.891541 897.786926,695.140808 918.166870,706.917297 
	C951.432739,726.139771 986.639648,728.277954 1021.665466,712.711060 
	C1053.270752,698.664429 1068.189453,665.252319 1059.061523,633.140869 
	C1053.965210,615.212463 1041.321655,603.465576 1024.961548,596.189270 
	C1008.896790,589.044189 992.049377,583.679504 975.733093,577.070068 
	C968.239136,574.034302 960.733337,570.571838 954.069763,566.065247 
	C946.792969,561.143860 945.756226,553.261414 947.825317,545.007019 
	C949.831848,537.001831 955.304382,532.434631 963.093811,531.081055 
	C983.588989,527.519470 995.895508,537.951233 997.809753,554.086670 
	C1017.879028,554.086670 1037.964966,554.086670 1058.647461,554.086670 
	C1057.923462,549.205750 1057.248413,544.654541 1056.325806,539.302979 
M1040.109985,113.391083 
	C1035.259888,109.622780 1030.806152,105.135712 1025.493774,102.205559 
	C996.201965,86.049103 965.303162,85.084709 934.137085,95.057297 
	C898.275818,106.532272 880.953308,137.556122 889.018555,174.178040 
	C893.566772,194.830505 907.568604,207.802933 926.170288,215.607834 
	C941.923584,222.217636 958.517822,226.797180 974.453003,233.011017 
	C981.930115,235.926712 989.371338,239.748703 995.684082,244.638046 
	C1004.351135,251.350906 1004.525146,265.346283 997.348145,273.309723 
	C988.736389,282.865082 960.994141,286.176758 951.219543,268.781952 
	C948.845459,264.556915 947.666016,259.660614 945.922791,255.034683 
	C926.438354,255.034683 906.669861,255.034683 886.679932,255.034683 
	C887.257385,277.208649 896.198364,294.861084 913.651917,307.960815 
	C943.164856,330.111786 995.877991,332.693054 1027.540649,313.804993 
	C1053.659790,298.223877 1066.114502,270.651886 1059.996948,240.907486 
	C1055.892700,220.951736 1042.563721,208.121689 1024.855469,200.158005 
	C1008.822144,192.947586 991.942261,187.642761 975.626221,181.027634 
	C968.133850,177.989944 960.668091,174.469894 953.973206,169.996796 
	C947.024536,165.354172 945.931946,157.754517 947.571716,149.847031 
	C949.195923,142.014587 954.236755,136.841690 961.768250,135.482269 
	C967.486145,134.450226 973.814331,134.544052 979.464661,135.869354 
	C990.755859,138.517761 996.435364,146.735001 997.539734,158.044724 
	C1017.976868,158.044724 1038.067749,158.044724 1058.381104,158.044724 
	C1057.482910,141.061234 1052.205078,126.219643 1040.109985,113.391083 
M1559.893799,544.375122 
	C1543.823608,565.892029 1527.753540,587.408936 1511.683472,608.925781 
	C1511.346436,608.835571 1511.009521,608.745300 1510.672607,608.655029 
	C1510.672607,564.475891 1510.672607,520.296814 1510.672607,476.117126 
	C1491.444824,476.117126 1472.864014,476.117126 1454.211914,476.117126 
	C1454.211914,557.471375 1454.211914,638.552673 1454.211914,719.792664 
	C1473.006226,719.792664 1491.586914,719.792664 1510.844727,719.792664 
	C1510.844727,694.759277 1510.844727,669.925964 1510.844727,643.835754 
	C1512.578247,646.098511 1513.474243,647.219543 1514.319092,648.377869 
	C1530.980347,671.219177 1547.667114,694.042114 1564.242554,716.945618 
	C1565.874634,719.200806 1567.559082,720.082947 1570.359863,720.066711 
	C1591.190918,719.946167 1612.023071,720.006958 1632.854858,719.984619 
	C1633.881958,719.983521 1634.908691,719.738892 1636.340210,719.555969 
	C1610.529785,688.935730 1585.096924,658.763367 1559.395996,628.273071 
	C1584.778809,597.673706 1610.079346,567.173523 1636.014893,535.907898 
	C1615.234375,535.907898 1595.601929,536.292480 1575.998535,535.708801 
	C1568.685913,535.491150 1563.525391,537.165039 1559.893799,544.375122 
M1833.926270,583.145203 
	C1853.765381,577.257935 1872.296997,584.018616 1878.615234,600.526733 
	C1881.216675,607.323853 1882.168335,615.102112 1882.251831,622.452454 
	C1882.600098,653.101501 1882.332642,683.757629 1882.291626,714.411133 
	C1882.289185,716.185730 1882.291260,717.960327 1882.291260,719.630615 
	C1901.423950,719.630615 1919.972168,719.630615 1938.691528,719.630615 
	C1938.691528,699.284119 1938.782715,679.309021 1938.665161,659.335144 
	C1938.550415,639.848450 1939.083130,620.306213 1937.802368,600.889282 
	C1935.417969,564.740295 1912.700439,537.991272 1877.317017,534.471741 
	C1852.587402,532.011963 1830.729614,537.864014 1813.976685,557.536255 
	C1813.540283,558.048706 1812.923096,558.407104 1811.800537,559.313416 
	C1811.800537,551.049133 1811.800537,543.618530 1811.800537,536.301819 
	C1792.795166,536.301819 1774.099487,536.301819 1755.564453,536.301819 
	C1755.564453,597.737732 1755.564453,658.782776 1755.564453,719.756042 
	C1774.508789,719.756042 1793.103394,719.756042 1811.992920,719.756042 
	C1811.992920,717.879272 1811.993286,716.245972 1811.992798,714.612732 
	C1811.982910,682.126770 1811.747559,649.638611 1812.061768,617.155823 
	C1812.209106,601.911743 1818.181152,589.679016 1833.926270,583.145203 
M1726.006226,250.439850 
	C1734.685669,253.266022 1743.655151,255.432556 1751.969482,259.088959 
	C1761.897583,263.455139 1762.105713,275.685974 1752.820190,281.379089 
	C1750.875732,282.571350 1748.634277,283.491486 1746.407593,283.977570 
	C1729.687988,287.627411 1712.493286,281.719543 1708.385986,263.671387 
	C1690.081665,263.671387 1671.777344,263.671387 1653.261353,263.671387 
	C1654.552612,279.295715 1660.909912,292.311737 1671.952148,303.007507 
	C1685.629639,316.255768 1702.433472,322.993805 1721.029541,325.416687 
	C1742.906006,328.266968 1764.320190,326.869019 1784.151245,316.062378 
	C1802.603149,306.007263 1812.936157,290.671661 1812.570190,269.194153 
	C1812.183350,246.497314 1799.733154,232.077087 1779.726562,223.525314 
	C1772.420288,220.402267 1764.665527,218.281128 1757.030640,215.984390 
	C1745.259521,212.443375 1733.297607,209.498566 1721.645996,205.612885 
	C1714.455688,203.215073 1711.497681,198.123352 1712.072876,192.070328 
	C1712.646973,186.031281 1717.160156,181.568222 1724.291504,179.987595 
	C1741.791748,176.108658 1753.728149,182.728928 1759.920776,199.690948 
	C1777.171265,199.690948 1794.393677,199.690948 1811.636841,199.690948 
	C1808.949951,176.815918 1798.521973,159.094467 1778.728394,147.458527 
	C1765.262817,139.542633 1750.270020,137.302368 1734.980591,137.243683 
	C1714.258545,137.164154 1694.642090,141.069412 1677.862915,154.493149 
	C1653.991211,173.590927 1648.759399,219.287659 1685.544312,237.183441 
	C1697.944458,243.216064 1711.945557,245.958023 1726.006226,250.439850 
M1537.657227,180.861786 
	C1555.667725,175.226868 1568.097656,181.356766 1576.163086,199.829773 
	C1593.316772,199.829773 1610.458008,199.829773 1627.765015,199.829773 
	C1625.201294,178.146515 1616.264160,159.935989 1597.156372,149.171585 
	C1567.000488,132.183151 1535.413086,132.716843 1504.756836,147.577576 
	C1482.066406,158.576843 1472.538208,178.898926 1476.086182,203.862396 
	C1478.864746,223.413040 1492.189453,234.213303 1509.372925,240.847000 
	C1518.179077,244.246689 1527.492554,246.321915 1536.549805,249.084442 
	C1547.025757,252.279709 1557.543091,255.365128 1567.899292,258.915710 
	C1572.653198,260.545563 1575.463501,264.469452 1575.588135,269.624176 
	C1575.719727,275.075134 1573.107666,279.215851 1568.284180,281.785889 
	C1566.538452,282.716156 1564.643311,283.478241 1562.726562,283.957703 
	C1544.712280,288.463654 1530.988281,281.170715 1524.640869,263.853577 
	C1506.240967,263.853577 1487.866577,263.853577 1469.338623,263.853577 
	C1471.155029,282.488251 1479.647583,296.990387 1493.988647,308.174927 
	C1506.791260,318.159576 1521.545044,323.507446 1537.494141,325.495819 
	C1559.381226,328.224487 1580.804443,326.788605 1600.585449,315.909637 
	C1618.058472,306.300018 1628.279419,291.691071 1628.719727,271.317230 
	C1629.147827,251.506912 1620.341675,236.381683 1603.029297,227.213943 
	C1593.732666,222.290924 1583.336426,219.312836 1573.240967,216.064331 
	C1561.544678,212.300644 1549.551636,209.459427 1537.852295,205.704300 
	C1532.383179,203.948914 1528.276489,200.068390 1528.116699,193.716400 
	C1527.960205,187.494919 1531.333740,183.451828 1537.657227,180.861786 
M1198.823364,686.506226 
	C1198.823364,681.740173 1198.823364,676.974060 1198.823364,671.989258 
	C1190.532837,671.989258 1182.871216,672.212585 1175.228394,671.930359 
	C1166.519897,671.608704 1162.538574,667.729858 1161.499268,659.179260 
	C1161.258911,657.202209 1161.233643,655.190247 1161.232666,653.194275 
	C1161.222412,633.528442 1161.238647,613.862549 1161.246582,594.196716 
	C1161.248047,590.566956 1161.246704,586.937256 1161.246704,582.840637 
	C1173.802368,582.840637 1185.882935,582.840637 1197.955566,582.840637 
	C1197.955566,566.960510 1197.955566,551.567200 1197.955566,535.655029 
	C1185.603760,535.655029 1173.548584,535.655029 1161.170654,535.655029 
	C1161.170654,520.541321 1161.170654,505.947418 1161.170654,491.270569 
	C1142.257446,491.270569 1123.691040,491.270569 1104.648071,491.270569 
	C1104.648071,506.279327 1104.648071,521.010803 1104.648071,536.204468 
	C1096.939697,536.204468 1089.706177,536.204468 1082.519165,536.204468 
	C1082.519165,551.948914 1082.519165,567.214294 1082.519165,582.907959 
	C1090.000488,582.907959 1097.251099,582.907959 1104.900513,582.907959 
	C1104.900513,594.626892 1104.777954,605.920105 1104.928467,617.209656 
	C1105.168335,635.191345 1104.630859,653.253479 1106.175903,671.130005 
	C1108.134033,693.784180 1120.425537,709.294739 1142.618164,716.210693 
	C1160.985962,721.934631 1179.819336,719.407654 1198.823364,720.059875 
	C1198.823364,708.776428 1198.823364,698.140503 1198.823364,686.506226 
M1710.269531,720.010437 
	C1711.666138,719.900330 1713.062866,719.790222 1714.214355,719.699463 
	C1714.214355,658.146240 1714.214355,597.126892 1714.214355,536.202393 
	C1695.288574,536.202393 1676.733276,536.202393 1658.229736,536.202393 
	C1658.229736,597.580566 1658.229736,658.630127 1658.229736,720.010437 
	C1675.411011,720.010437 1692.361694,720.010437 1710.269531,720.010437 
M1381.916260,159.500320 
	C1381.916260,214.245682 1381.916260,268.991058 1381.916260,323.700134 
	C1401.038818,323.700134 1419.611816,323.700134 1438.010010,323.700134 
	C1438.010010,262.323364 1438.010010,201.253174 1438.010010,140.213440 
	C1419.175049,140.213440 1400.627441,140.213440 1381.916260,140.213440 
	C1381.916260,146.531128 1381.916260,152.515793 1381.916260,159.500320 
M1673.098267,514.609497 
	C1676.347900,515.277161 1679.568726,516.202698 1682.851929,516.571472 
	C1707.558716,519.346008 1726.051392,497.695068 1717.882080,475.650909 
	C1712.980103,462.423859 1700.081543,455.051697 1683.269653,455.868408 
	C1668.087402,456.605957 1655.847168,466.594177 1653.228394,480.382782 
	C1650.426636,495.134155 1657.655640,507.912292 1673.098267,514.609497 
M1376.945923,85.873093 
	C1373.333618,113.951538 1403.180176,127.908745 1426.282593,117.239899 
	C1444.538452,108.809227 1449.525879,85.568390 1436.264526,70.642174 
	C1426.513794,59.667038 1413.713257,57.780506 1400.148438,61.018036 
	C1387.598877,64.013306 1379.618286,72.056099 1376.945923,85.873093 
z"/>
<path fill="#C7202D" opacity="1.000000" stroke="none" 
	d="
M1.000002,388.468658 
	C1.576657,387.232605 2.542925,386.525635 2.672721,385.688904 
	C5.574769,366.981476 7.307899,348.017700 11.449317,329.594055 
	C18.759584,297.073364 30.456533,265.977295 45.952339,236.378784 
	C66.653824,196.836914 92.942070,161.450226 125.103539,130.514664 
	C167.267731,89.957657 215.778214,59.387836 270.618011,38.919395 
	C297.159546,29.013023 324.439148,21.745373 352.381317,17.292353 
	C382.037262,12.566216 411.980591,10.589435 441.970093,12.372275 
	C467.852783,13.910969 493.484467,17.506298 518.846436,23.462011 
	C567.285156,34.836815 612.387146,53.863789 653.890747,81.111191 
	C712.878723,119.837143 759.527344,170.100830 792.869446,232.476486 
	C812.441101,269.090607 825.896057,307.815094 833.451111,348.654846 
	C839.172180,379.580627 841.558350,410.778656 839.598083,442.078674 
	C837.654175,473.117218 832.481384,503.691315 823.521362,533.680298 
	C807.779053,586.370239 782.372314,633.699036 747.537537,676.099731 
	C712.202271,719.109558 669.697388,753.393982 620.632080,779.473572 
	C594.316223,793.461182 566.749817,804.406860 537.962402,812.506042 
	C513.869934,819.284241 489.502808,824.572327 464.666443,826.637451 
	C442.646332,828.468384 420.395294,829.384460 398.341156,828.453918 
	C372.970947,827.383423 347.798157,823.582886 322.924957,817.713745 
	C288.100281,809.496460 254.823090,797.385986 223.115799,780.933838 
	C190.301880,763.907471 160.346573,742.784058 133.044693,717.820129 
	C99.195206,686.869202 71.366112,651.258423 49.440067,611.017090 
	C33.064713,580.963135 20.793856,549.321899 12.641862,516.049377 
	C7.725613,495.983704 4.117290,475.746918 2.691832,455.129272 
	C2.639603,454.373840 2.119601,453.650757 1.408798,452.956299 
	C1.000000,431.645782 1.000000,410.291534 1.000002,388.468658 
M553.588135,470.933807 
	C565.837708,487.138489 577.975281,503.429352 590.364502,519.526550 
	C606.710815,540.765259 622.871216,562.166138 639.851929,582.890564 
	C650.658875,596.080017 666.652954,599.163696 682.950562,593.052856 
	C698.048950,587.391663 708.383240,572.578064 709.066040,556.658386 
	C709.515198,546.187073 705.699768,537.448914 699.691406,529.401550 
	C677.478516,499.650391 655.241760,469.916779 632.914246,440.251648 
	C618.395569,420.961578 603.689087,401.813049 589.098572,382.576874 
	C584.260742,376.198639 584.457520,373.648193 590.126099,367.972900 
	C611.907166,346.166199 633.684692,324.355927 655.507874,302.591492 
	C663.858337,294.263519 668.597290,284.360382 669.713989,272.568085 
	C672.082703,247.555176 648.114502,225.349701 623.449951,229.662506 
	C612.907043,231.506012 604.752136,237.228851 597.498291,244.551346 
	C571.359253,270.937805 545.180054,297.285858 519.219116,323.846893 
	C494.824585,348.805237 491.990997,387.918152 512.494446,415.946075 
	C525.862976,434.220673 539.586060,452.235992 553.588135,470.933807 
M197.652756,364.846802 
	C219.244965,393.195435 240.858246,421.528076 262.412476,449.905579 
	C266.996155,455.940308 266.776855,458.155640 261.610657,463.769409 
	C260.708740,464.749451 259.741913,465.669739 258.808807,466.621246 
	C236.179489,489.696503 213.518723,512.741089 190.942078,535.867737 
	C184.521423,542.444824 181.157364,550.504211 180.855850,559.682800 
	C180.271454,577.473450 190.534927,593.631104 206.983810,600.315125 
	C220.660873,605.872864 238.340347,603.411194 251.339203,589.937195 
	C272.499695,568.003113 294.314392,546.701660 315.663177,524.946960 
	C323.695618,516.761780 331.751434,508.490204 338.807648,499.483276 
	C348.206329,487.486267 353.405151,473.185791 352.566101,458.089233 
	C351.575897,440.272675 345.476746,423.953888 334.118744,409.399933 
	C308.920776,377.111664 284.529266,344.194336 259.776245,311.558319 
	C244.680954,291.655701 229.897385,271.500854 214.288666,252.007950 
	C199.400314,233.414642 175.111816,231.058838 157.017517,245.731522 
	C141.389450,258.404266 136.515320,284.217712 150.962585,302.809753 
	C166.694534,323.055023 181.837769,343.757751 197.652756,364.846802 
M574.923584,129.498093 
	C562.312805,122.318039 549.685669,121.746552 537.079102,129.475815 
	C533.107178,131.911072 529.007996,134.202103 525.310608,137.011307 
	C501.309845,155.246475 477.368683,173.560623 453.477020,191.938614 
	C430.244415,209.809631 407.103638,227.799927 383.901428,245.710526 
	C378.311737,250.025391 376.106171,249.942947 371.387177,245.333176 
	C367.098236,241.143494 362.873993,236.887238 358.642212,232.639465 
	C339.006073,212.929337 319.750854,192.820160 299.622803,173.626144 
	C284.623596,159.323029 258.498596,160.828552 244.301849,175.617203 
	C229.235565,191.311646 229.102966,216.848495 244.160492,232.157883 
	C271.383026,259.835815 298.910889,287.217285 325.886719,315.132843 
	C346.097198,336.047363 370.030334,340.137665 396.960022,332.709320 
	C411.464752,328.708252 422.853546,319.349548 434.449829,310.359985 
	C481.829620,273.630737 529.303894,237.023300 576.639587,200.237350 
	C602.710449,179.976913 602.114807,147.556351 574.923584,129.498093 
M455.778534,586.124634 
	C459.680389,582.928955 463.002441,583.972473 466.290527,587.286011 
	C472.035187,593.075073 478.011414,598.634460 483.754059,604.425476 
	C501.112305,621.930054 518.389465,639.514954 535.729309,657.037842 
	C545.533630,666.945679 557.555847,671.399170 571.190430,669.033752 
	C587.462463,666.210754 598.495972,656.228760 603.595886,640.547241 
	C608.446228,625.632996 604.979492,611.845703 594.225342,600.786194 
	C565.998718,571.758118 537.829712,542.634216 508.570831,514.664612 
	C491.081177,497.945618 468.789185,493.945099 445.250244,498.421051 
	C433.656281,500.625641 424.344482,507.792358 415.196014,514.724365 
	C387.724121,535.540344 360.396790,556.547852 333.080048,577.567749 
	C309.986572,595.337830 286.961945,613.197632 263.959717,631.085693 
	C256.690094,636.739075 249.847748,642.905212 246.108276,651.588684 
	C238.772247,668.623901 243.854614,688.853394 258.042297,699.894409 
	C274.470612,712.679077 290.827759,712.862671 307.444977,700.113586 
	C356.725098,662.304749 405.935822,624.405457 455.778534,586.124634 
z"/>
<path fill="#FEFEFE" opacity="1.000000" stroke="none" 
	d="
M2108.154297,804.189148 
	C2071.813232,815.202148 2037.005981,813.903076 2004.788940,792.862854 
	C1985.818970,780.474182 1976.163208,761.880554 1973.436646,739.275330 
	C1991.900391,739.275330 2010.317871,739.275330 2028.770264,739.275330 
	C2039.256470,760.964783 2067.858643,769.049072 2088.513184,756.150696 
	C2098.609863,749.845703 2103.005371,740.096802 2103.757568,728.906616 
	C2104.500244,717.850708 2103.919434,706.705872 2103.919434,696.014404 
	C2098.399902,700.965271 2093.298340,706.707581 2087.132812,710.876221 
	C2054.615967,732.860718 2008.687744,723.677673 1985.169922,690.789124 
	C1969.709595,669.168213 1965.289185,644.689880 1966.846436,618.723938 
	C1968.266602,595.047729 1975.682861,573.763611 1992.262573,556.290283 
	C2018.785278,528.337524 2065.651855,525.215881 2093.839111,549.547058 
	C2097.342529,552.571045 2100.266113,556.266174 2103.897461,560.115784 
	C2103.897461,552.078796 2103.897461,544.252197 2103.897461,536.160217 
	C2123.149170,536.160217 2141.742676,536.160217 2160.770020,536.160217 
	C2160.834717,537.423401 2160.972900,538.858643 2160.972412,540.293945 
	C2160.954102,599.789062 2160.971436,659.284241 2160.868652,718.779236 
	C2160.830811,740.589783 2156.083252,761.068787 2142.565918,778.789490 
	C2133.659668,790.464905 2122.128906,798.682129 2108.154297,804.189148 
M2040.620605,590.074890 
	C2033.238281,595.507446 2028.463623,602.736328 2026.010010,611.509766 
	C2023.358643,620.989929 2023.312378,630.586914 2025.105591,640.204834 
	C2028.465454,658.227417 2043.144409,671.927917 2060.341064,673.186523 
	C2079.442139,674.584473 2095.989258,664.535645 2101.216064,646.638916 
	C2103.670166,638.235962 2104.398926,628.869568 2103.745850,620.101013 
	C2101.368164,588.193054 2067.897949,572.156921 2040.620605,590.074890 
z"/>
<path fill="#FEFEFE" opacity="1.000000" stroke="none" 
	d="
M1111.071777,265.902161 
	C1099.627319,223.793869 1088.255249,182.087982 1076.805298,140.096863 
	C1095.807983,140.096863 1114.414429,140.096863 1133.399048,140.096863 
	C1141.986816,183.203323 1150.553589,226.204163 1159.386353,270.540192 
	C1169.882568,226.208801 1180.075317,183.158768 1190.283203,140.044479 
	C1210.217163,140.044479 1229.859741,140.044479 1250.189331,140.044479 
	C1260.472656,182.764984 1270.787598,225.616272 1281.450684,269.914154 
	C1290.172974,225.734680 1298.607422,183.013351 1307.078613,140.106033 
	C1324.636475,140.106033 1342.091309,140.106033 1360.306885,140.106033 
	C1343.716919,201.346756 1327.187256,262.364807 1310.573853,323.692413 
	C1289.897827,323.692413 1269.130615,323.692413 1247.959961,323.692413 
	C1238.524658,285.084290 1229.048096,246.307587 1219.571655,207.530899 
	C1219.228516,207.495773 1218.885376,207.460648 1218.542114,207.425537 
	C1208.719238,246.242554 1198.896240,285.059570 1189.069580,323.891541 
	C1168.250366,323.891541 1147.767212,323.891541 1127.003906,323.891541 
	C1121.712036,304.676727 1116.428101,285.490662 1111.071777,265.902161 
z"/>
<path fill="#FEFEFE" opacity="1.000000" stroke="none" 
	d="
M1356.699463,558.620605 
	C1356.705200,550.961060 1356.705200,543.665527 1356.705200,536.126160 
	C1375.539917,536.126160 1393.975342,536.126160 1412.770264,536.126160 
	C1412.770264,597.180603 1412.770264,658.368530 1412.770264,719.773621 
	C1394.209961,719.773621 1375.643188,719.773621 1356.532593,719.773621 
	C1356.532593,711.668945 1356.532593,703.787354 1356.532593,697.540405 
	C1353.289429,700.223267 1349.443604,703.354675 1345.651367,706.549866 
	C1315.808472,731.693665 1267.984863,726.996338 1241.917603,696.343262 
	C1228.289795,680.318237 1221.320801,661.528015 1219.494263,640.806824 
	C1217.106812,613.721252 1220.899414,587.910950 1237.173218,565.189941 
	C1260.781738,532.228699 1307.979248,522.859131 1340.100220,544.995850 
	C1345.877319,548.977112 1350.380371,554.805237 1355.495239,559.756165 
	C1355.661377,559.916870 1356.159180,559.924194 1356.371582,559.792297 
	C1356.569702,559.669312 1356.593262,559.265076 1356.699463,558.620605 
M1285.621094,597.172119 
	C1276.224121,609.404541 1274.788818,623.443237 1277.132568,637.976868 
	C1279.837036,654.747742 1288.839722,667.141663 1305.613892,671.829834 
	C1321.958130,676.397705 1336.389893,672.058594 1347.216309,658.612000 
	C1356.869019,646.623047 1358.154297,632.428772 1355.927490,617.860352 
	C1353.378052,601.181152 1344.391846,588.978455 1327.941406,584.169678 
	C1311.743896,579.435059 1297.385620,583.560486 1285.621094,597.172119 
z"/>
<path fill="#FEFEFE" opacity="1.000000" stroke="none" 
	d="
M1056.449585,539.703125 
	C1057.248413,544.654541 1057.923462,549.205750 1058.647461,554.086670 
	C1037.964966,554.086670 1017.879028,554.086670 997.809753,554.086670 
	C995.895508,537.951233 983.588989,527.519470 963.093811,531.081055 
	C955.304382,532.434631 949.831848,537.001831 947.825317,545.007019 
	C945.756226,553.261414 946.792969,561.143860 954.069763,566.065247 
	C960.733337,570.571838 968.239136,574.034302 975.733093,577.070068 
	C992.049377,583.679504 1008.896790,589.044189 1024.961548,596.189270 
	C1041.321655,603.465576 1053.965210,615.212463 1059.061523,633.140869 
	C1068.189453,665.252319 1053.270752,698.664429 1021.665466,712.711060 
	C986.639648,728.277954 951.432739,726.139771 918.166870,706.917297 
	C897.786926,695.140808 886.231323,672.891541 886.965332,651.160583 
	C887.395264,651.040039 887.854797,650.798889 888.314514,650.798462 
	C907.630371,650.779541 926.946289,650.782288 945.830566,650.782288 
	C947.690186,655.713684 948.862671,660.619141 951.249268,664.837830 
	C961.062500,682.184021 988.804016,678.857117 997.387085,669.267334 
	C1004.526917,661.289917 1004.312378,647.291077 995.644409,640.602051 
	C989.322693,635.723633 981.882568,631.907959 974.405090,628.993469 
	C958.470642,622.782715 941.876160,618.207703 926.128540,611.590698 
	C907.534851,603.777710 893.548340,590.794983 889.010132,570.140381 
	C880.963013,533.515076 898.283020,502.547577 934.162292,491.046478 
	C964.968567,481.171509 995.586670,482.018555 1024.652954,497.698914 
	C1041.322144,506.691498 1051.863525,520.794067 1056.449585,539.703125 
z"/>
<path fill="#FEFEFE" opacity="1.000000" stroke="none" 
	d="
M1040.347534,113.655884 
	C1052.205078,126.219643 1057.482910,141.061234 1058.381104,158.044724 
	C1038.067749,158.044724 1017.976868,158.044724 997.539734,158.044724 
	C996.435364,146.735001 990.755859,138.517761 979.464661,135.869354 
	C973.814331,134.544052 967.486145,134.450226 961.768250,135.482269 
	C954.236755,136.841690 949.195923,142.014587 947.571716,149.847031 
	C945.931946,157.754517 947.024536,165.354172 953.973206,169.996796 
	C960.668091,174.469894 968.133850,177.989944 975.626221,181.027634 
	C991.942261,187.642761 1008.822144,192.947586 1024.855469,200.158005 
	C1042.563721,208.121689 1055.892700,220.951736 1059.996948,240.907486 
	C1066.114502,270.651886 1053.659790,298.223877 1027.540649,313.804993 
	C995.877991,332.693054 943.164856,330.111786 913.651917,307.960815 
	C896.198364,294.861084 887.257385,277.208649 886.679932,255.034683 
	C906.669861,255.034683 926.438354,255.034683 945.922791,255.034683 
	C947.666016,259.660614 948.845459,264.556915 951.219543,268.781952 
	C960.994141,286.176758 988.736389,282.865082 997.348145,273.309723 
	C1004.525146,265.346283 1004.351135,251.350906 995.684082,244.638046 
	C989.371338,239.748703 981.930115,235.926712 974.453003,233.011017 
	C958.517822,226.797180 941.923584,222.217636 926.170288,215.607834 
	C907.568604,207.802933 893.566772,194.830505 889.018555,174.178040 
	C880.953308,137.556122 898.275818,106.532272 934.137085,95.057297 
	C965.303162,85.084709 996.201965,86.049103 1025.493774,102.205559 
	C1030.806152,105.135712 1035.259888,109.622780 1040.347534,113.655884 
z"/>
<path fill="#FEFEFE" opacity="1.000000" stroke="none" 
	d="
M1560.096924,544.080444 
	C1563.525391,537.165039 1568.685913,535.491150 1575.998535,535.708801 
	C1595.601929,536.292480 1615.234375,535.907898 1636.014893,535.907898 
	C1610.079346,567.173523 1584.778809,597.673706 1559.395996,628.273071 
	C1585.096924,658.763367 1610.529785,688.935730 1636.340210,719.555969 
	C1634.908691,719.738892 1633.881958,719.983521 1632.854858,719.984619 
	C1612.023071,720.006958 1591.190918,719.946167 1570.359863,720.066711 
	C1567.559082,720.082947 1565.874634,719.200806 1564.242554,716.945618 
	C1547.667114,694.042114 1530.980347,671.219177 1514.319092,648.377869 
	C1513.474243,647.219543 1512.578247,646.098511 1510.844727,643.835754 
	C1510.844727,669.925964 1510.844727,694.759277 1510.844727,719.792664 
	C1491.586914,719.792664 1473.006226,719.792664 1454.211914,719.792664 
	C1454.211914,638.552673 1454.211914,557.471375 1454.211914,476.117126 
	C1472.864014,476.117126 1491.444824,476.117126 1510.672607,476.117126 
	C1510.672607,520.296814 1510.672607,564.475891 1510.672607,608.655029 
	C1511.009521,608.745300 1511.346436,608.835571 1511.683472,608.925781 
	C1527.753540,587.408936 1543.823608,565.892029 1560.096924,544.080444 
z"/>
<path fill="#FDFDFD" opacity="1.000000" stroke="none" 
	d="
M1833.560059,583.290649 
	C1818.181152,589.679016 1812.209106,601.911743 1812.061768,617.155823 
	C1811.747559,649.638611 1811.982910,682.126770 1811.992798,714.612732 
	C1811.993286,716.245972 1811.992920,717.879272 1811.992920,719.756042 
	C1793.103394,719.756042 1774.508789,719.756042 1755.564453,719.756042 
	C1755.564453,658.782776 1755.564453,597.737732 1755.564453,536.301819 
	C1774.099487,536.301819 1792.795166,536.301819 1811.800537,536.301819 
	C1811.800537,543.618530 1811.800537,551.049133 1811.800537,559.313416 
	C1812.923096,558.407104 1813.540283,558.048706 1813.976685,557.536255 
	C1830.729614,537.864014 1852.587402,532.011963 1877.317017,534.471741 
	C1912.700439,537.991272 1935.417969,564.740295 1937.802368,600.889282 
	C1939.083130,620.306213 1938.550415,639.848450 1938.665161,659.335144 
	C1938.782715,679.309021 1938.691528,699.284119 1938.691528,719.630615 
	C1919.972168,719.630615 1901.423950,719.630615 1882.291260,719.630615 
	C1882.291260,717.960327 1882.289185,716.185730 1882.291626,714.411133 
	C1882.332642,683.757629 1882.600098,653.101501 1882.251831,622.452454 
	C1882.168335,615.102112 1881.216675,607.323853 1878.615234,600.526733 
	C1872.296997,584.018616 1853.765381,577.257935 1833.560059,583.290649 
z"/>
<path fill="#FEFEFE" opacity="1.000000" stroke="none" 
	d="
M1725.610596,250.321869 
	C1711.945557,245.958023 1697.944458,243.216064 1685.544312,237.183441 
	C1648.759399,219.287659 1653.991211,173.590927 1677.862915,154.493149 
	C1694.642090,141.069412 1714.258545,137.164154 1734.980591,137.243683 
	C1750.270020,137.302368 1765.262817,139.542633 1778.728394,147.458527 
	C1798.521973,159.094467 1808.949951,176.815918 1811.636841,199.690948 
	C1794.393677,199.690948 1777.171265,199.690948 1759.920776,199.690948 
	C1753.728149,182.728928 1741.791748,176.108658 1724.291504,179.987595 
	C1717.160156,181.568222 1712.646973,186.031281 1712.072876,192.070328 
	C1711.497681,198.123352 1714.455688,203.215073 1721.645996,205.612885 
	C1733.297607,209.498566 1745.259521,212.443375 1757.030640,215.984390 
	C1764.665527,218.281128 1772.420288,220.402267 1779.726562,223.525314 
	C1799.733154,232.077087 1812.183350,246.497314 1812.570190,269.194153 
	C1812.936157,290.671661 1802.603149,306.007263 1784.151245,316.062378 
	C1764.320190,326.869019 1742.906006,328.266968 1721.029541,325.416687 
	C1702.433472,322.993805 1685.629639,316.255768 1671.952148,303.007507 
	C1660.909912,292.311737 1654.552612,279.295715 1653.261353,263.671387 
	C1671.777344,263.671387 1690.081665,263.671387 1708.386230,263.668701 
	C1712.493286,281.719543 1729.687988,287.627411 1746.407593,283.977570 
	C1748.634277,283.491486 1750.875732,282.571350 1752.820190,281.379089 
	C1762.105713,275.685974 1761.897583,263.455139 1751.969482,259.088959 
	C1743.655151,255.432556 1734.685669,253.266022 1725.610596,250.321869 
z"/>
<path fill="#FEFEFE" opacity="1.000000" stroke="none" 
	d="
M1537.278442,180.962952 
	C1531.333740,183.451828 1527.960205,187.494919 1528.116699,193.716400 
	C1528.276489,200.068390 1532.383179,203.948914 1537.852295,205.704300 
	C1549.551636,209.459427 1561.544678,212.300644 1573.240967,216.064331 
	C1583.336426,219.312836 1593.732666,222.290924 1603.029297,227.213943 
	C1620.341675,236.381683 1629.147827,251.506912 1628.719727,271.317230 
	C1628.279419,291.691071 1618.058472,306.300018 1600.585449,315.909637 
	C1580.804443,326.788605 1559.381226,328.224487 1537.494141,325.495819 
	C1521.545044,323.507446 1506.791260,318.159576 1493.988647,308.174927 
	C1479.647583,296.990387 1471.155029,282.488251 1469.338623,263.853577 
	C1487.866577,263.853577 1506.240967,263.853577 1524.640869,263.853577 
	C1530.988281,281.170715 1544.712280,288.463654 1562.726562,283.957703 
	C1564.643311,283.478241 1566.538452,282.716156 1568.284180,281.785889 
	C1573.107666,279.215851 1575.719727,275.075134 1575.588135,269.624176 
	C1575.463501,264.469452 1572.653198,260.545563 1567.899292,258.915710 
	C1557.543091,255.365128 1547.025757,252.279709 1536.549805,249.084442 
	C1527.492554,246.321915 1518.179077,244.246689 1509.372925,240.847000 
	C1492.189453,234.213303 1478.864746,223.413040 1476.086182,203.862396 
	C1472.538208,178.898926 1482.066406,158.576843 1504.756836,147.577576 
	C1535.413086,132.716843 1567.000488,132.183151 1597.156372,149.171585 
	C1616.264160,159.935989 1625.201294,178.146515 1627.765015,199.829773 
	C1610.458008,199.829773 1593.316772,199.829773 1576.163086,199.829773 
	C1568.097656,181.356766 1555.667725,175.226868 1537.278442,180.962952 
z"/>
<path fill="#FEFEFE" opacity="1.000000" stroke="none" 
	d="
M1198.823364,687.005371 
	C1198.823364,698.140503 1198.823364,708.776428 1198.823364,720.059875 
	C1179.819336,719.407654 1160.985962,721.934631 1142.618164,716.210693 
	C1120.425537,709.294739 1108.134033,693.784180 1106.175903,671.130005 
	C1104.630859,653.253479 1105.168335,635.191345 1104.928467,617.209656 
	C1104.777954,605.920105 1104.900513,594.626892 1104.900513,582.907959 
	C1097.251099,582.907959 1090.000488,582.907959 1082.519165,582.907959 
	C1082.519165,567.214294 1082.519165,551.948914 1082.519165,536.204468 
	C1089.706177,536.204468 1096.939697,536.204468 1104.648071,536.204468 
	C1104.648071,521.010803 1104.648071,506.279327 1104.648071,491.270569 
	C1123.691040,491.270569 1142.257446,491.270569 1161.170654,491.270569 
	C1161.170654,505.947418 1161.170654,520.541321 1161.170654,535.655029 
	C1173.548584,535.655029 1185.603760,535.655029 1197.955566,535.655029 
	C1197.955566,551.567200 1197.955566,566.960510 1197.955566,582.840637 
	C1185.882935,582.840637 1173.802368,582.840637 1161.246704,582.840637 
	C1161.246704,586.937256 1161.248047,590.566956 1161.246582,594.196716 
	C1161.238647,613.862549 1161.222412,633.528442 1161.232666,653.194275 
	C1161.233643,655.190247 1161.258911,657.202209 1161.499268,659.179260 
	C1162.538574,667.729858 1166.519897,671.608704 1175.228394,671.930359 
	C1182.871216,672.212585 1190.532837,671.989258 1198.823364,671.989258 
	C1198.823364,676.974060 1198.823364,681.740173 1198.823364,687.005371 
z"/>
<path fill="#FDFDFD" opacity="1.000000" stroke="none" 
	d="
M1709.791016,720.010437 
	C1692.361694,720.010437 1675.411011,720.010437 1658.229736,720.010437 
	C1658.229736,658.630127 1658.229736,597.580566 1658.229736,536.202393 
	C1676.733276,536.202393 1695.288574,536.202393 1714.214355,536.202393 
	C1714.214355,597.126892 1714.214355,658.146240 1714.214355,719.699463 
	C1713.062866,719.790222 1711.666138,719.900330 1709.791016,720.010437 
z"/>
<path fill="#FFFFFF" opacity="1.000000" stroke="none" 
	d="
M1381.916260,159.000397 
	C1381.916260,152.515793 1381.916260,146.531128 1381.916260,140.213440 
	C1400.627441,140.213440 1419.175049,140.213440 1438.010010,140.213440 
	C1438.010010,201.253174 1438.010010,262.323364 1438.010010,323.700134 
	C1419.611816,323.700134 1401.038818,323.700134 1381.916260,323.700134 
	C1381.916260,268.991058 1381.916260,214.245682 1381.916260,159.000397 
z"/>
<path fill="#FDFDFD" opacity="1.000000" stroke="none" 
	d="
M1672.746216,514.434937 
	C1657.655640,507.912292 1650.426636,495.134155 1653.228394,480.382782 
	C1655.847168,466.594177 1668.087402,456.605957 1683.269653,455.868408 
	C1700.081543,455.051697 1712.980103,462.423859 1717.882080,475.650909 
	C1726.051392,497.695068 1707.558716,519.346008 1682.851929,516.571472 
	C1679.568726,516.202698 1676.347900,515.277161 1672.746216,514.434937 
z"/>
<path fill="#FDFDFD" opacity="1.000000" stroke="none" 
	d="
M1376.987549,85.427078 
	C1379.618286,72.056099 1387.598877,64.013306 1400.148438,61.018036 
	C1413.713257,57.780506 1426.513794,59.667038 1436.264526,70.642174 
	C1449.525879,85.568390 1444.538452,108.809227 1426.282593,117.239899 
	C1403.180176,127.908745 1373.333618,113.951538 1376.987549,85.427078 
z"/>
<path fill="#FEFDFD" opacity="1.000000" stroke="none" 
	d="
M553.369202,470.650635 
	C539.586060,452.235992 525.862976,434.220673 512.494446,415.946075 
	C491.990997,387.918152 494.824585,348.805237 519.219116,323.846893 
	C545.180054,297.285858 571.359253,270.937805 597.498291,244.551346 
	C604.752136,237.228851 612.907043,231.506012 623.449951,229.662506 
	C648.114502,225.349701 672.082703,247.555176 669.713989,272.568085 
	C668.597290,284.360382 663.858337,294.263519 655.507874,302.591492 
	C633.684692,324.355927 611.907166,346.166199 590.126099,367.972900 
	C584.457520,373.648193 584.260742,376.198639 589.098572,382.576874 
	C603.689087,401.813049 618.395569,420.961578 632.914246,440.251648 
	C655.241760,469.916779 677.478516,499.650391 699.691406,529.401550 
	C705.699768,537.448914 709.515198,546.187073 709.066040,556.658386 
	C708.383240,572.578064 698.048950,587.391663 682.950562,593.052856 
	C666.652954,599.163696 650.658875,596.080017 639.851929,582.890564 
	C622.871216,562.166138 606.710815,540.765259 590.364502,519.526550 
	C577.975281,503.429352 565.837708,487.138489 553.369202,470.650635 
z"/>
<path fill="#FEFDFD" opacity="1.000000" stroke="none" 
	d="
M197.445206,364.553925 
	C181.837769,343.757751 166.694534,323.055023 150.962585,302.809753 
	C136.515320,284.217712 141.389450,258.404266 157.017517,245.731522 
	C175.111816,231.058838 199.400314,233.414642 214.288666,252.007950 
	C229.897385,271.500854 244.680954,291.655701 259.776245,311.558319 
	C284.529266,344.194336 308.920776,377.111664 334.118744,409.399933 
	C345.476746,423.953888 351.575897,440.272675 352.566101,458.089233 
	C353.405151,473.185791 348.206329,487.486267 338.807648,499.483276 
	C331.751434,508.490204 323.695618,516.761780 315.663177,524.946960 
	C294.314392,546.701660 272.499695,568.003113 251.339203,589.937195 
	C238.340347,603.411194 220.660873,605.872864 206.983810,600.315125 
	C190.534927,593.631104 180.271454,577.473450 180.855850,559.682800 
	C181.157364,550.504211 184.521423,542.444824 190.942078,535.867737 
	C213.518723,512.741089 236.179489,489.696503 258.808807,466.621246 
	C259.741913,465.669739 260.708740,464.749451 261.610657,463.769409 
	C266.776855,458.155640 266.996155,455.940308 262.412476,449.905579 
	C240.858246,421.528076 219.244965,393.195435 197.445206,364.553925 
z"/>
<path fill="#FEFDFD" opacity="1.000000" stroke="none" 
	d="
M575.244019,129.680115 
	C602.114807,147.556351 602.710449,179.976913 576.639587,200.237350 
	C529.303894,237.023300 481.829620,273.630737 434.449829,310.359985 
	C422.853546,319.349548 411.464752,328.708252 396.960022,332.709320 
	C370.030334,340.137665 346.097198,336.047363 325.886719,315.132843 
	C298.910889,287.217285 271.383026,259.835815 244.160492,232.157883 
	C229.102966,216.848495 229.235565,191.311646 244.301849,175.617203 
	C258.498596,160.828552 284.623596,159.323029 299.622803,173.626144 
	C319.750854,192.820160 339.006073,212.929337 358.642212,232.639465 
	C362.873993,236.887238 367.098236,241.143494 371.387177,245.333176 
	C376.106171,249.942947 378.311737,250.025391 383.901428,245.710526 
	C407.103638,227.799927 430.244415,209.809631 453.477020,191.938614 
	C477.368683,173.560623 501.309845,155.246475 525.310608,137.011307 
	C529.007996,134.202103 533.107178,131.911072 537.079102,129.475815 
	C549.685669,121.746552 562.312805,122.318039 575.244019,129.680115 
z"/>
<path fill="#FEFDFD" opacity="1.000000" stroke="none" 
	d="
M455.476105,586.333130 
	C405.935822,624.405457 356.725098,662.304749 307.444977,700.113586 
	C290.827759,712.862671 274.470612,712.679077 258.042297,699.894409 
	C243.854614,688.853394 238.772247,668.623901 246.108276,651.588684 
	C249.847748,642.905212 256.690094,636.739075 263.959717,631.085693 
	C286.961945,613.197632 309.986572,595.337830 333.080048,577.567749 
	C360.396790,556.547852 387.724121,535.540344 415.196014,514.724365 
	C424.344482,507.792358 433.656281,500.625641 445.250244,498.421051 
	C468.789185,493.945099 491.081177,497.945618 508.570831,514.664612 
	C537.829712,542.634216 565.998718,571.758118 594.225342,600.786194 
	C604.979492,611.845703 608.446228,625.632996 603.595886,640.547241 
	C598.495972,656.228760 587.462463,666.210754 571.190430,669.033752 
	C557.555847,671.399170 545.533630,666.945679 535.729309,657.037842 
	C518.389465,639.514954 501.112305,621.930054 483.754059,604.425476 
	C478.011414,598.634460 472.035187,593.075073 466.290527,587.286011 
	C463.002441,583.972473 459.680389,582.928955 455.476105,586.333130 
z"/>
<path fill="#010101" opacity="1.000000" stroke="none" 
	d="
M2040.911865,589.862366 
	C2067.897949,572.156921 2101.368164,588.193054 2103.745850,620.101013 
	C2104.398926,628.869568 2103.670166,638.235962 2101.216064,646.638916 
	C2095.989258,664.535645 2079.442139,674.584473 2060.341064,673.186523 
	C2043.144409,671.927917 2028.465454,658.227417 2025.105591,640.204834 
	C2023.312378,630.586914 2023.358643,620.989929 2026.010010,611.509766 
	C2028.463623,602.736328 2033.238281,595.507446 2040.911865,589.862366 
z"/>
<path fill="#020202" opacity="1.000000" stroke="none" 
	d="
M1285.854004,596.899963 
	C1297.385620,583.560486 1311.743896,579.435059 1327.941406,584.169678 
	C1344.391846,588.978455 1353.378052,601.181152 1355.927490,617.860352 
	C1358.154297,632.428772 1356.869019,646.623047 1347.216309,658.612000 
	C1336.389893,672.058594 1321.958130,676.397705 1305.613892,671.829834 
	C1288.839722,667.141663 1279.837036,654.747742 1277.132568,637.976868 
	C1274.788818,623.443237 1276.224121,609.404541 1285.854004,596.899963 
z"/>
</svg>